<?xml version="1.0" encoding="utf-8"?>
<!-- Generator: Adobe Illustrator 27.0.0, SVG Export Plug-In . SVG Version: 6.00 Build 0)  -->
<svg version="1.1" id="Layer_1" xmlns="http://www.w3.org/2000/svg" xmlns:xlink="http://www.w3.org/1999/xlink" x="0px" y="0px"
	 viewBox="0 0 62.4 49.6" style="enable-background:new 0 0 62.4 49.6;" xml:space="preserve">
<style type="text/css">
	.st0{fill:url(#SVGID_1_);}
</style>
<linearGradient id="SVGID_1_" gradientUnits="userSpaceOnUse" x1="2.8156" y1="24.5849" x2="59.573" y2="24.5849">
	<stop  offset="0" style="stop-color:#0A2BE9"/>
	<stop  offset="1" style="stop-color:#2AE8F8"/>
</linearGradient>
<path class="st0" d="M59.3,12.6c-3.2-3.9-7-7-11.5-9.3L47.3,3L34.6,29.1c-0.2,0.3-0.4,0.6-0.7,0.9c-0.7,0.7-1.6,1.1-2.6,1.1l0,0
	l-0.2,0c-1,0-1.9-0.4-2.6-1.1c-0.3-0.3-0.5-0.6-0.7-0.9L15.3,2.7L14.7,3c-4.5,2.2-8.4,5.3-11.6,9.1l-0.3,0.3L14,35.8l0.1,0.1
	c0.9,1.8,2.1,3.4,3.5,4.9c3.6,3.6,8.4,5.7,13.5,5.7c0,0,0,0,0,0h0.1l0.1,0c5.1,0,9.9-2,13.5-5.6c1.4-1.4,2.6-3.1,3.6-4.9l11.2-23.1
	L59.3,12.6z M31.3,31.1C31.4,31.1,31.4,31.1,31.3,31.1L31.3,31.1L31.3,31.1z M44.8,37.3c-0.1,0.1-0.1,0.2-0.2,0.3l-0.2,0.2
	c-0.1,0.1-0.2,0.2-0.2,0.3L44,38.3c-0.1,0.1-0.2,0.2-0.3,0.3l-0.2,0.2c-0.1,0.2-0.3,0.3-0.4,0.5c-3.2,3.2-7.5,4.9-12,4.9l0,0l0,0
	c-4.5,0-8.8-1.8-12-5c-1.3-1.3-2.3-2.7-3.1-4.3L5.6,12.8C8.1,10,11,7.7,14.2,5.8L25.7,30l0.1,0.1c2.5,5,7.7,8.3,13.3,8.3
	C41.1,38.5,43,38.1,44.8,37.3L44.8,37.3z M47.2,33.2c-0.8,0.7-1.7,1.3-2.7,1.8c-1.7,0.8-3.5,1.2-5.4,1.2c-2.9,0-5.6-1-7.9-2.8l0,0
	c1.6,0,3.1-0.6,4.3-1.8c0.4-0.4,0.8-0.9,1.1-1.5l11.6-24c3.2,1.9,6.1,4.3,8.6,7.1L47.2,33.2z"/>
</svg>
