<?xml version="1.0" encoding="utf-8"?>
<!-- Generator: Adobe Illustrator 27.0.0, SVG Export Plug-In . SVG Version: 6.00 Build 0)  -->
<svg version="1.1" id="Layer_1" xmlns="http://www.w3.org/2000/svg" xmlns:xlink="http://www.w3.org/1999/xlink" x="0px" y="0px"
	 viewBox="0 0 39.7 39.7" style="enable-background:new 0 0 39.7 39.7;" xml:space="preserve">
<style type="text/css">
	.st0{fill:#0160FD;}
</style>
<g>
	<path class="st0" d="M16.5,16.6c2.6-2.6,3.1-6.5,3.1-13.4c-9,0.3-16.2,7.5-16.5,16.5C10,19.7,13.9,19.2,16.5,16.6z"/>
	<path class="st0" d="M23.8,23.9c-2.6,2.6-3.1,6.5-3.1,13.4c9-0.3,16.2-7.5,16.5-16.5C30.3,20.9,26.4,21.3,23.8,23.9z"/>
	<path class="st0" d="M23.8,16.6c2.6,2.6,6.5,3.1,13.4,3.1c-0.3-9-7.5-16.2-16.5-16.5C20.8,10.2,21.2,14,23.8,16.6z"/>
	<path class="st0" d="M16.5,23.9c-2.6-2.6-6.5-3.1-13.4-3.1c0.3,9,7.5,16.2,16.5,16.5C19.6,30.4,19.1,26.5,16.5,23.9z"/>
</g>
</svg>
