<?xml version="1.0" encoding="utf-8"?>
<!-- Generator: Adobe Illustrator 27.0.0, SVG Export Plug-In . SVG Version: 6.00 Build 0)  -->
<svg version="1.1" id="Layer_1" xmlns="http://www.w3.org/2000/svg" xmlns:xlink="http://www.w3.org/1999/xlink" x="0px" y="0px"
	 viewBox="0 0 39.7 39.7" style="enable-background:new 0 0 39.7 39.7;" xml:space="preserve">
<style type="text/css">
	.st0{fill:#0160FD;}
</style>
<path class="st0" d="M20.2,3.3c-9.4,0-17,7.6-17,17c0,9.4,7.6,17,17,17c9.4,0,17-7.6,17-17C37.2,10.9,29.6,3.3,20.2,3.3z M28.8,26.2
	h-2.5c-0.8,0-0.9-0.6-2.4-2c-1.3-1.3-1.8-1.4-2.1-1.4c-0.3,0-0.5,0.2-0.5,0.7v1.9c0,0.6-0.3,0.8-1.7,0.8c-2.2,0-4.6-1.4-6.5-3.9
	c-2.8-3.7-3.5-6.5-3.5-7.1c0-0.3,0.2-0.5,0.6-0.5h2.2c0.6,0,0.8,0.2,1,0.8c1,3,2.9,5.7,3.6,5.7c0.3,0,0.3-0.2,0.3-0.9v-3.1
	c0-1.5-0.8-1.6-0.8-2.2c0-0.2,0.2-0.4,0.4-0.4h3.6c0.5,0,0.5,0.2,0.5,0.8v4.2c0,0.5,0.1,0.7,0.3,0.7c0.3,0,0.5-0.2,1-0.7
	c1.5-1.6,2.7-4.2,2.7-4.2c0.2-0.3,0.3-0.5,0.9-0.5c0.8,0,2.2,0,2.2,0c0.4,0,0.6,0.2,0.5,0.7c-0.3,1.2-2.8,4.8-2.8,4.8
	c-0.2,0.4-0.3,0.6,0,0.9c0.2,0.3,1,1,1.5,1.6c1.1,1.2,1.9,2.2,1.9,2.8C29.3,26.1,29,26.2,28.8,26.2z"/>
</svg>
