<?xml version="1.0" encoding="utf-8"?>
<!-- Generator: Adobe Illustrator 27.0.0, SVG Export Plug-In . SVG Version: 6.00 Build 0)  -->
<svg version="1.1" id="Layer_1" xmlns="http://www.w3.org/2000/svg" xmlns:xlink="http://www.w3.org/1999/xlink" x="0px" y="0px"
	 viewBox="0 0 119.1 95" style="enable-background:new 0 0 119.1 95;" xml:space="preserve">
<style type="text/css">
	.st0{fill:#0160FD;}
</style>
<g>
	<g>
		<path class="st0" d="M80.2,86.9H37.9c-1.2,0-2.1-0.9-2.1-2.1s0.9-2.1,2.1-2.1h41.2l33-48H79.5c-1.2,0-2.1-0.9-2.1-2.1
			c0-1.2,0.9-2.1,2.1-2.1H116c0.8,0,1.5,0.4,1.9,1.1c0.4,0.7,0.3,1.5-0.1,2.2L81.9,86C81.5,86.6,80.8,86.9,80.2,86.9z"/>
		<path class="st0" d="M47.9,80.9c-0.4,0-0.8-0.1-1.2-0.4c-1-0.7-1.2-2-0.5-2.9l33.7-49.3c1.3-1.8,2-3.9,2-6
			c0-5.6-4.5-10.1-10.1-10.1H50.2c-3.3,0-6.5,1.6-8.4,4.4l-35,50.1c-0.7,1-2,1.2-2.9,0.5c-1-0.7-1.2-2-0.5-2.9l35-50.1
			C41.1,10.3,45.5,8,50.2,8h21.5c7.9,0,14.3,6.4,14.3,14.3c0,3.1-1,6-2.8,8.5L49.6,80C49.2,80.6,48.6,80.9,47.9,80.9z"/>
		<path class="st0" d="M37.9,86.9H14.7c-7.4,0-13.5-6-13.5-13.5v-1.7c0-7.4,6-13.5,13.5-13.5h23.2c7.4,0,13.5,6,13.5,13.5v1.7
			C51.4,80.8,45.3,86.9,37.9,86.9z M14.7,62.4c-5.1,0-9.3,4.2-9.3,9.3v1.7c0,5.1,4.2,9.3,9.3,9.3h23.2c5.1,0,9.3-4.2,9.3-9.3v-1.7
			c0-5.1-4.2-9.3-9.3-9.3H14.7z"/>
		<path class="st0" d="M37.4,78.6H15.2c-3.2,0-5.8-2.6-5.8-5.8v-0.6c0-3.2,2.6-5.8,5.8-5.8h22.3c3.2,0,5.8,2.6,5.8,5.8v0.6
			C43.2,76,40.6,78.6,37.4,78.6z M15.2,70.7c-0.9,0-1.6,0.7-1.6,1.6v0.6c0,0.9,0.7,1.6,1.6,1.6h22.3c0.9,0,1.6-0.7,1.6-1.6v-0.6
			c0-0.9-0.7-1.6-1.6-1.6H15.2z"/>
	</g>
	<path class="st0" d="M65.7,69.3c-0.8,0-1.6-0.5-1.9-1.3c-0.4-1.1,0.1-2.3,1.1-2.8l23.7-10c1.1-0.5,2.3,0.1,2.7,1.1
		c0.4,1.1-0.1,2.3-1.1,2.8l-23.7,10C66.3,69.3,66,69.3,65.7,69.3z"/>
	<path class="st0" d="M30.2,47.7c-0.8,0-1.6-0.5-1.9-1.3c-0.4-1.1,0.1-2.3,1.1-2.8l28.7-12.1c1.1-0.4,2.3,0.1,2.7,1.1
		c0.4,1.1-0.1,2.3-1.1,2.8L31,47.5C30.8,47.7,30.5,47.7,30.2,47.7z"/>
	<path class="st0" d="M79.8,52.7c-0.8,0-1.6-0.5-1.9-1.3c-0.4-1.1,0.1-2.3,1.1-2.8l11-4.6c1.1-0.4,2.3,0.1,2.7,1.1
		c0.4,1.1-0.1,2.3-1.1,2.8l-11,4.6C80.4,52.7,80.1,52.7,79.8,52.7z"/>
</g>
</svg>
