<?xml version="1.0" encoding="utf-8"?>
<!-- Generator: Adobe Illustrator 27.0.0, SVG Export Plug-In . SVG Version: 6.00 Build 0)  -->
<svg version="1.1" id="Layer_1" xmlns="http://www.w3.org/2000/svg" xmlns:xlink="http://www.w3.org/1999/xlink" x="0px" y="0px"
	 viewBox="0 0 119.1 95" style="enable-background:new 0 0 119.1 95;" xml:space="preserve">
<style type="text/css">
	.st0{fill:#0160FD;}
	.st1{fill:none;stroke:#0160FD;stroke-width:4.2;stroke-linecap:round;stroke-linejoin:round;stroke-miterlimit:10;}
</style>
<g>
	<path class="st0" d="M59.6,90.7c-0.4,0-0.7-0.1-1-0.3L18.2,67.6c-0.7-0.4-1.1-1.1-1.1-1.8V29.1c0-1.2,0.9-2.1,2.1-2.1
		s2.1,0.9,2.1,2.1v35.5l38.2,21.6l7.9-4.5V46.3c0-1.2,0.9-2.1,2.1-2.1s2.1,0.9,2.1,2.1v36.7c0,0.8-0.4,1.5-1.1,1.8l-10,5.6
		C60.3,90.6,59.9,90.7,59.6,90.7z"/>
	<path class="st0" d="M89.9,73.6c-0.4,0-0.7-0.1-1.1-0.3c-0.6-0.4-1-1.1-1-1.8V34.8c0-1.2,0.9-2.1,2.1-2.1s2.1,0.9,2.1,2.1v33.1
		l5.8-3.3V30.4L59.6,8.8l-9,5.1c-1,0.6-2.3,0.2-2.9-0.8c-0.6-1-0.2-2.3,0.8-2.9l10-5.6c0.6-0.4,1.4-0.4,2.1,0l40.3,22.8
		c0.7,0.4,1.1,1.1,1.1,1.8v36.7c0,0.8-0.4,1.5-1.1,1.8l-10,5.6C90.6,73.5,90.3,73.6,89.9,73.6z"/>
	<g>
		<path class="st0" d="M59.6,90.7c-1.2,0-2.1-0.9-2.1-2.1V53.1L18.2,31c-0.7-0.4-1.1-1.1-1.1-1.8s0.4-1.5,1.1-1.8l10-5.6
			c0.6-0.4,1.4-0.4,2.1,0l14.1,8l3.1-1.7V12c0-0.7,0.4-1.4,1-1.8c0.6-0.4,1.4-0.4,2.1,0l15.1,8.6c0.7,0.4,1.1,1.1,1.1,1.8
			s-0.4,1.5-1.1,1.8l-15.1,8.5c0,0-0.1,0-0.1,0l-5.1,2.9c-0.6,0.4-1.4,0.4-2.1,0l-14.1-8l-5.7,3.2l37.1,21c0.7,0.4,1.1,1.1,1.1,1.8
			v36.7C61.7,89.8,60.7,90.7,59.6,90.7z M51.7,15.6v9.9l8.8-5L51.7,15.6z"/>
		<path class="st0" d="M59.6,54c-0.7,0-1.4-0.4-1.8-1.1c-0.6-1-0.2-2.3,0.8-2.9l6.8-3.8l-11.9-6.7c-0.7-0.4-1.1-1.1-1.1-1.8
			s0.4-1.5,1.1-1.8l20.3-11.5c0.6-0.4,1.4-0.4,2.1,0l14.1,8l9-5.1c1-0.6,2.3-0.2,2.9,0.8c0.6,1,0.2,2.3-0.8,2.9l-10,5.6
			c-0.6,0.4-1.4,0.4-2.1,0l-14.1-8l-16.1,9.1l11.9,6.7c0.7,0.4,1.1,1.1,1.1,1.8s-0.4,1.5-1.1,1.8l-10,5.6C60.3,53.9,59.9,54,59.6,54
			z"/>
	</g>
	<g>
		<path class="st0" d="M89.9,73.6c-0.3,0-0.7-0.1-1-0.3l-15.2-8.6c-0.7-0.4-1.1-1.1-1.1-1.8V26.2c0-1.2,0.9-2.1,2.1-2.1
			s2.1,0.9,2.1,2.1v35.5l14.1,8c1,0.6,1.4,1.9,0.8,2.9C91.3,73.2,90.6,73.6,89.9,73.6z"/>
	</g>
	<path class="st1" d="M29.3,23.3"/>
	<g>
		<path class="st0" d="M69.6,67.9c-0.7,0-1.4-0.4-1.8-1.1c-0.6-1-0.2-2.3,0.8-2.9l5.1-2.9c1-0.6,2.3-0.2,2.9,0.8s0.2,2.3-0.8,2.9
			l-5.1,2.9C70.3,67.8,69.9,67.9,69.6,67.9z"/>
	</g>
</g>
</svg>
