<?xml version="1.0" encoding="utf-8"?>
<!-- Generator: Adobe Illustrator 27.0.0, SVG Export Plug-In . SVG Version: 6.00 Build 0)  -->
<svg version="1.1" id="Layer_1" xmlns="http://www.w3.org/2000/svg" xmlns:xlink="http://www.w3.org/1999/xlink" x="0px" y="0px"
	 viewBox="0 0 119.1 95" style="enable-background:new 0 0 119.1 95;" xml:space="preserve">
<style type="text/css">
	.st0{fill:#0160FD;}
</style>
<g>
	<path class="st0" d="M74.8,82.6c-0.3,0-0.6-0.1-0.9-0.2l-16.2-8.1c-0.8-0.4-1.2-1.2-1.1-2.1c0.1-0.9,0.7-1.6,1.5-1.8L77.6,65
		c1.1-0.3,2.3,0.4,2.6,1.5c0.3,1.1-0.4,2.3-1.5,2.6l-14.3,3.9l11.3,5.7c1,0.5,1.5,1.8,0.9,2.8C76.3,82.1,75.6,82.6,74.8,82.6z"/>
	<path class="st0" d="M94.4,90.4H77.1c-0.3,0-0.6-0.1-0.9-0.2L18.1,63.6c-0.6-0.3-1.1-0.9-1.2-1.5s0.1-1.4,0.6-1.9l5.4-5.6
		c-0.7-4.3,0.4-8,2-10c1.1-1.4,10.8-12.9,11.2-13.4c0.4-0.4,0.9-0.7,1.5-0.7c0.6,0,1.1,0.2,1.5,0.5c2.6,2.4,3,5.5,3.4,8
		c0.3,2.5,0.6,4,2,4.8c1.6,1,5.4,0.9,8.7,0.9c5.2,0,10.1-0.1,12.7,2.6c3.8,3.9,5.6,6.2,5.7,6.3c0.1,0.1,0.1,0.1,0.2,0.2c0,0,0,0,0,0
		l14.5,17.9l12.6,3.7c2.1,0.6,3.9,3.4,3.9,6.2C102.7,84.7,99.2,90.4,94.4,90.4z M77.6,86.2h16.9c1.9,0,4-3.3,4-4.4
		c0-1.1-0.7-2-0.9-2.2l-13.2-3.8c-0.4-0.1-0.8-0.4-1-0.7l-14-17.4l-27.6,7.5c-0.5,0.1-1,0.1-1.5-0.1l-14.5-7.3l-3.1,3.2L77.6,86.2z
		 M27,53.8L41.4,61l25-6.8c-0.9-1-2-2.2-3.5-3.8C61.5,49,56.9,49,53.2,49c-4.3,0-8.3,0.1-10.9-1.5c-3.2-1.9-3.7-5.2-4-7.9
		c-0.2-1.3-0.3-2.5-0.7-3.6c-2.9,3.5-8.6,10.2-9.4,11.3C27.6,48,26.5,50.3,27,53.8z"/>
	<path class="st0" d="M69.8,51.9h-3.4c-0.9,0-1.7-0.6-2-1.4c-0.2-0.5-1.7-5.2-1.4-7.9c0.1-1.2,1.1-2,2.3-1.9c1.2,0.1,2,1.1,1.9,2.3
		c-0.1,1.1,0.3,3.1,0.8,4.8h1.8c1.2,0,2.1,0.9,2.1,2.1S71,51.9,69.8,51.9z"/>
	<path class="st0" d="M75.1,58.7h-3.4c-1.2,0-2.1-0.9-2.1-2.1s0.9-2.1,2.1-2.1h3.4c1.2,0,2.1,0.9,2.1,2.1S76.2,58.7,75.1,58.7z"/>
	<path class="st0" d="M80.7,65.5h-3.4c-1.2,0-2.1-0.9-2.1-2.1s0.9-2.1,2.1-2.1h3.4c1.2,0,2.1,0.9,2.1,2.1S81.9,65.5,80.7,65.5z"/>
	<path class="st0" d="M45.8,24.8c-0.3,0-0.6-0.1-0.8-0.2c-1.1-0.5-1.6-1.7-1.1-2.8l6.7-15.8C51,5,52.2,4.5,53.3,4.9
		c1.1,0.5,1.6,1.7,1.1,2.8l-6.7,15.8C47.4,24.3,46.6,24.8,45.8,24.8z"/>
	<path class="st0" d="M66.1,38.4c-0.2,0-0.4,0-0.5-0.1c-1.1-0.3-1.8-1.4-1.5-2.6c1.6-5.9,2.8-7.9,19.1-30.2c0.7-0.9,2-1.1,2.9-0.5
		s1.1,2,0.5,2.9C70.2,30.5,69.5,31.8,68.2,36.9C67.9,37.8,67.1,38.4,66.1,38.4z"/>
</g>
</svg>
