<?xml version="1.0" encoding="utf-8"?>
<!-- Generator: Adobe Illustrator 27.0.0, SVG Export Plug-In . SVG Version: 6.00 Build 0)  -->
<svg version="1.1" id="Layer_1" xmlns="http://www.w3.org/2000/svg" xmlns:xlink="http://www.w3.org/1999/xlink" x="0px" y="0px"
	 viewBox="0 0 119.1 95" style="enable-background:new 0 0 119.1 95;" xml:space="preserve">
<style type="text/css">
	.st0{fill:#0160FD;}
</style>
<g>
	<path class="st0" d="M88.2,34.7h-9.4c-1.2,0-2.1-0.9-2.1-2.1V15.2c0-1.2,0.9-2.1,2.1-2.1h9.4c0.4,0,0.7,0.1,1.1,0.3l7.4,4.4
		c0.6,0.4,1,1.1,1,1.8v8.6c0,0.7-0.4,1.4-1,1.8l-7.4,4.4C89,34.6,88.6,34.7,88.2,34.7z M80.9,30.5h6.8l5.8-3.5v-6.2l-5.8-3.5h-6.8
		V30.5z"/>
	<path class="st0" d="M103,25.8h-7.4c-1.2,0-2.1-0.9-2.1-2.1s0.9-2.1,2.1-2.1h7.4c1.2,0,2.1,0.9,2.1,2.1S104.2,25.8,103,25.8z"/>
	<path class="st0" d="M58.5,87.9H25.8c-2.5,0-4.5-2-4.5-4.5V66.5c0-1.2,0.5-2.3,1.3-3.2l2.1-2.1c0.1-0.1,0.1-0.1,0.1-0.2
		c0.2-3,1.1-13,1.3-16.9c0.2-3-1-3.9-3.6-5.7c-0.3-0.2-0.6-0.4-0.9-0.6c-4.6-3.2-7.3-8.4-7.3-13.9c0-9.3,7.6-17,17-17H73
		c4.3,0,7.9,3.5,7.9,7.9V33c0,4.3-3.5,7.9-7.9,7.9H57.8c-4.8,0-5.9,1.7-6.2,5.1c-0.3,3.1-1,11.5-1.4,15.9c0,0.1,0,0.2,0.1,0.2
		c0,0,0.1,0.1,0.2,0.1h7.9c2.5,0,4.5,2,4.5,4.5v16.7C63,85.9,61,87.9,58.5,87.9z M31.3,11.2c-7,0-12.8,5.7-12.8,12.8
		c0,4.2,2.1,8.1,5.5,10.5c0.3,0.2,0.6,0.4,0.8,0.6c2.9,2,5.8,4,5.4,9.4c-0.3,3.9-1.1,14-1.3,17c-0.1,1.1-0.6,2.1-1.3,2.8l-2.1,2.1
		c-0.1,0.1-0.1,0.1-0.1,0.2v16.9c0,0.2,0.1,0.3,0.3,0.3h32.6c0.2,0,0.3-0.1,0.3-0.3V66.7c0-0.2-0.1-0.3-0.3-0.3h-7.9
		c-1.3,0-2.5-0.5-3.3-1.5c-0.9-0.9-1.3-2.2-1.2-3.4c0.4-4.3,1.1-12.8,1.4-15.9c0.5-6.1,3.8-9,10.4-9H73c2,0,3.7-1.6,3.7-3.7V14.8
		c0-2-1.6-3.7-3.7-3.7H31.3z"/>
	<path class="st0" d="M58.1,51.5h-8.7c-1.2,0-2.1-0.9-2.1-2.1s0.9-2.1,2.1-2.1h8.7c0.6,0,1.1-0.5,1.1-1.1v-7.5
		c0-1.2,0.9-2.1,2.1-2.1s2.1,0.9,2.1,2.1v7.5C63.4,49.2,61,51.5,58.1,51.5z"/>
	<path class="st0" d="M31.7,30.3c-1.2,0-2.1-0.9-2.1-2.1v-9.4c0-1.2,0.9-2.1,2.1-2.1s2.1,0.9,2.1,2.1v9.4
		C33.8,29.4,32.9,30.3,31.7,30.3z"/>
	<path class="st0" d="M39.3,30.3c-1.2,0-2.1-0.9-2.1-2.1v-9.4c0-1.2,0.9-2.1,2.1-2.1s2.1,0.9,2.1,2.1v9.4
		C41.4,29.4,40.5,30.3,39.3,30.3z"/>
	<path class="st0" d="M60.9,74.5H30.1c-1.2,0-2.1-0.9-2.1-2.1s0.9-2.1,2.1-2.1h30.8c1.2,0,2.1,0.9,2.1,2.1S62,74.5,60.9,74.5z"/>
</g>
</svg>
