<?xml version="1.0" encoding="utf-8"?>
<!-- Generator: Adobe Illustrator 27.0.0, SVG Export Plug-In . SVG Version: 6.00 Build 0)  -->
<svg version="1.1" id="Layer_1" xmlns="http://www.w3.org/2000/svg" xmlns:xlink="http://www.w3.org/1999/xlink" x="0px" y="0px"
	 viewBox="0 0 119.1 95" style="enable-background:new 0 0 119.1 95;" xml:space="preserve">
<style type="text/css">
	.st0{fill:#0160FD;}
</style>
<g>
	<g>
		<path class="st0" d="M59.7,78.3H32c-3.6,0-6.5-2.9-6.5-6.5V23.2c0-2.8,1.8-5.3,4.4-6.2l9-3L44,5.4c0.4-0.6,1.1-1,1.8-1h13.8
			c1.2,0,2.1,0.9,2.1,2.1s-0.9,2.1-2.1,2.1H47l-4.9,8.3c-0.3,0.4-0.7,0.8-1.2,0.9L31.3,21c-0.9,0.3-1.6,1.2-1.6,2.2v48.6
			c0,1.3,1,2.3,2.3,2.3h27.7c1.2,0,2.1,0.9,2.1,2.1S60.8,78.3,59.7,78.3z"/>
		<path class="st0" d="M52.3,29.9c-0.6,0-1.1-0.2-1.5-0.6L38.8,17.3c-0.8-0.8-0.8-2.1,0-3c0.8-0.8,2.1-0.8,3,0l10.5,10.5l4.5-4.5
			L44.3,7.9c-0.8-0.8-0.8-2.1,0-3c0.8-0.8,2.1-0.8,3,0l13.9,13.9c0.8,0.8,0.8,2.1,0,3l-7.4,7.4C53.4,29.6,52.8,29.9,52.3,29.9z"/>
	</g>
	<g>
		<path class="st0" d="M87.5,78.3H59.8c-1.2,0-2.1-0.9-2.1-2.1s0.9-2.1,2.1-2.1h27.7c1.3,0,2.3-1,2.3-2.3V23.2c0-1-0.6-1.9-1.6-2.2
			l-9.7-3.2c-0.5-0.2-0.9-0.5-1.2-0.9l-4.9-8.3H59.8c-1.2,0-2.1-0.9-2.1-2.1s0.9-2.1,2.1-2.1h13.8c0.7,0,1.4,0.4,1.8,1l5.1,8.7l9,3
			c2.7,0.9,4.4,3.4,4.4,6.2v48.6C93.9,75.3,91,78.3,87.5,78.3z"/>
		<path class="st0" d="M67.2,29.9C67.2,29.9,67.2,29.9,67.2,29.9c-0.6,0-1.1-0.2-1.5-0.6l-7.4-7.4c-0.8-0.8-0.8-2.1,0-3L72.1,5
			c0.8-0.8,2.1-0.8,3,0c0.8,0.8,0.8,2.1,0,3L62.7,20.3l4.5,4.5l10.5-10.5c0.8-0.8,2.1-0.8,3,0c0.8,0.8,0.8,2.1,0,3L68.7,29.2
			C68.3,29.6,67.7,29.9,67.2,29.9z"/>
	</g>
	<g>
		<g>
			<path class="st0" d="M59.7,90.7H32c-3.6,0-6.5-2.9-6.5-6.5V70c0-1.2,0.9-2.1,2.1-2.1s2.1,0.9,2.1,2.1v14.2c0,1.3,1,2.3,2.3,2.3
				h27.7c1.2,0,2.1,0.9,2.1,2.1S60.8,90.7,59.7,90.7z"/>
		</g>
		<g>
			<path class="st0" d="M87.4,90.7H59.8c-1.2,0-2.1-0.9-2.1-2.1s0.9-2.1,2.1-2.1h27.7c1.3,0,2.3-1,2.3-2.3V70c0-1.2,0.9-2.1,2.1-2.1
				s2.1,0.9,2.1,2.1v14.2C93.9,87.8,91,90.7,87.4,90.7z"/>
		</g>
	</g>
	<g>
		<path class="st0" d="M59.7,39.7c-1.2,0-2.1-0.9-2.1-2.1V35c0-1.2,0.9-2.1,2.1-2.1s2.1,0.9,2.1,2.1v2.6
			C61.8,38.7,60.9,39.7,59.7,39.7z"/>
		<path class="st0" d="M59.7,53.6c-1.2,0-2.1-0.9-2.1-2.1v-2.6c0-1.2,0.9-2.1,2.1-2.1s2.1,0.9,2.1,2.1v2.6
			C61.8,52.7,60.9,53.6,59.7,53.6z"/>
		<path class="st0" d="M59.7,67.6c-1.2,0-2.1-0.9-2.1-2.1v-2.6c0-1.2,0.9-2.1,2.1-2.1s2.1,0.9,2.1,2.1v2.6
			C61.8,66.7,60.9,67.6,59.7,67.6z"/>
	</g>
</g>
</svg>
