<?xml version="1.0" encoding="utf-8"?>
<!-- Generator: Adobe Illustrator 27.0.0, SVG Export Plug-In . SVG Version: 6.00 Build 0)  -->
<svg version="1.1" id="Layer_1" xmlns="http://www.w3.org/2000/svg" xmlns:xlink="http://www.w3.org/1999/xlink" x="0px" y="0px"
	 viewBox="0 0 119.1 95" style="enable-background:new 0 0 119.1 95;" xml:space="preserve">
<style type="text/css">
	.st0{fill:#0160FD;}
	.st1{fill:none;stroke:#0160FD;stroke-width:4.2;stroke-linecap:round;stroke-linejoin:round;stroke-miterlimit:10;}
</style>
<g>
	<g>
		<path class="st0" d="M60.6,71.3c-1.2,0-2.1-0.9-2.1-2.1V55.1c-2.5-1.7-8-6-8-10.3c0-3.2,1.3-5.3,2.6-6.5l-1.3-15.6
			c-0.3-1.7-1.8-3-3.5-3s-3.2,1.3-3.5,3l-1.3,15.6c1.3,1.2,2.6,3.3,2.6,6.5c0,4.3-5.5,8.6-8,10.3v14.1c0,1.2-0.9,2.1-2.1,2.1
			s-2.1-0.9-2.1-2.1V53.9c0-0.7,0.4-1.4,1-1.8c3-1.8,7.1-5.4,7.1-7.4c0-2.7-1.4-3.5-1.6-3.6c-0.8-0.4-1.2-1.2-1.1-2l1.4-16.8
			c0,0,0-0.1,0-0.1c0.6-3.8,3.9-6.6,7.7-6.6c3.8,0,7.1,2.8,7.7,6.6c0,0,0,0.1,0,0.1l1.4,16.8c0.1,0.9-0.4,1.7-1.2,2.1
			c-0.1,0.1-1.5,1-1.5,3.6c0,1.9,4.1,5.5,7.1,7.4c0.6,0.4,1,1.1,1,1.8v15.3C62.7,70.4,61.8,71.3,60.6,71.3z"/>
		<path class="st0" d="M51.9,46.9h-7.2c-1.2,0-2.1-0.9-2.1-2.1s0.9-2.1,2.1-2.1h7.2c1.2,0,2.1,0.9,2.1,2.1S53,46.9,51.9,46.9z"/>
	</g>
	<g>
		<path class="st0" d="M68.2,94.1H25.9c-7.2,0-13.1-5.9-13.1-13.1v-0.7c0-7.2,5.9-13.1,13.1-13.1h42.2c7.2,0,13.1,5.9,13.1,13.1V81
			C81.2,88.2,75.4,94.1,68.2,94.1z M25.9,71.5c-4.9,0-8.9,4-8.9,8.9V81c0,4.9,4,8.9,8.9,8.9h42.2c4.9,0,8.9-4,8.9-8.9v-0.7
			c0-4.9-4-8.9-8.9-8.9H25.9z"/>
		<path class="st0" d="M47,94.1c-1.2,0-2.1-0.9-2.1-2.1V69.4c0-1.2,0.9-2.1,2.1-2.1s2.1,0.9,2.1,2.1V92C49.1,93.2,48.2,94.1,47,94.1
			z"/>
	</g>
	<g>
		<path class="st0" d="M78.1,28.6c-0.2,0-0.4,0-0.6-0.1c-1.1-0.3-1.8-1.5-1.5-2.6c2-7.1,3.1-13.6,3.3-16.2l0.5-5c0-0.1,0-0.1,0-0.2
			c0.4-2.2,2.4-3.8,4.6-3.8c1.2,0,2.1,0.9,2.1,2.1S85.7,5,84.5,5c-0.2,0-0.4,0.2-0.5,0.3l-0.5,4.9c-0.3,2.7-1.4,9.5-3.5,16.9
			C79.8,28,79,28.6,78.1,28.6z"/>
		<path class="st0" d="M84.5,43.1H72.2c-2.6,0-4.8-2.1-4.8-4.8v-9.2c0-2.6,2.1-4.8,4.8-4.8h12.3c1.2,0,2.1,0.9,2.1,2.1
			s-0.9,2.1-2.1,2.1H72.2c-0.3,0-0.6,0.3-0.6,0.6v9.2c0,0.3,0.3,0.6,0.6,0.6h12.3c1.2,0,2.1,0.9,2.1,2.1S85.7,43.1,84.5,43.1z"/>
		<path class="st0" d="M74.4,35.9h-9.9c-1.2,0-2.1-0.9-2.1-2.1s0.9-2.1,2.1-2.1h9.9c1.2,0,2.1,0.9,2.1,2.1S75.6,35.9,74.4,35.9z"/>
		<path class="st0" d="M67.3,71.3c-1.2,0-2.1-0.9-2.1-2.1l0-9.3c0-3.7,0-6.1,1.5-9.5c1.3-3.1,4.3-10.2,4.3-10.2l3.9,1.6
			c0,0-3,7.1-4.3,10.2c-1.1,2.6-1.1,4.5-1.1,7.9l0,9.3C69.4,70.4,68.4,71.3,67.3,71.3z"/>
		<path class="st1" d="M84.5,92"/>
		<path class="st0" d="M90.9,28.6c-0.9,0-1.8-0.6-2-1.5c-2.1-7.4-3.2-14.2-3.5-16.9L85,5.3C84.9,5.1,84.7,5,84.5,5
			c-1.2,0-2.1-0.9-2.1-2.1s0.9-2.1,2.1-2.1c2.3,0,4.2,1.6,4.6,3.8c0,0.1,0,0.1,0,0.2l0.5,5c0.2,2.6,1.3,9,3.3,16.2
			c0.3,1.1-0.3,2.3-1.5,2.6C91.3,28.6,91.1,28.6,90.9,28.6z"/>
		<path class="st0" d="M96.8,43.1H84.5c-1.2,0-2.1-0.9-2.1-2.1s0.9-2.1,2.1-2.1h12.3c0.3,0,0.6-0.3,0.6-0.6v-9.2
			c0-0.3-0.3-0.6-0.6-0.6H84.5c-1.2,0-2.1-0.9-2.1-2.1s0.9-2.1,2.1-2.1h12.3c2.6,0,4.8,2.1,4.8,4.8v9.2
			C101.5,41,99.4,43.1,96.8,43.1z"/>
		<path class="st0" d="M104.5,35.9H81.8c-1.2,0-2.1-0.9-2.1-2.1s0.9-2.1,2.1-2.1h22.7c1.2,0,2.1,0.9,2.1,2.1S105.6,35.9,104.5,35.9z
			"/>
		<path class="st0" d="M101.7,88.8c-1.2,0-2.1-0.9-2.1-2.1l0-26.4l0-0.4c0-3.4,0-5.3-1.1-7.9c-1.3-3.1-4.3-10.2-4.3-10.2l3.9-1.6
			c0,0,3,7.1,4.3,10.2c1.5,3.4,1.5,5.8,1.5,9.5l0,0.4l0,26.4C103.8,87.9,102.9,88.8,101.7,88.8z"/>
		<path class="st0" d="M96.5,94.1H63.7c-1.2,0-2.1-0.9-2.1-2.1s0.9-2.1,2.1-2.1h32.8c1.7,0,3.2-1.4,3.2-3.2c0-1.2,0.9-2.1,2.1-2.1
			s2.1,0.9,2.1,2.1C103.8,90.8,100.5,94.1,96.5,94.1z"/>
		<path class="st0" d="M84.5,80.2H79c-1.2,0-2.1-0.9-2.1-2.1S77.8,76,79,76h3.4V61.4H67.3c-1.2,0-2.1-0.9-2.1-2.1s0.9-2.1,2.1-2.1
			h17.2c1.2,0,2.1,0.9,2.1,2.1v18.8C86.6,79.2,85.7,80.2,84.5,80.2z"/>
	</g>
</g>
</svg>
