<?xml version="1.0" encoding="utf-8"?>
<!-- Generator: Adobe Illustrator 27.0.0, SVG Export Plug-In . SVG Version: 6.00 Build 0)  -->
<svg version="1.1" id="Layer_1" xmlns="http://www.w3.org/2000/svg" xmlns:xlink="http://www.w3.org/1999/xlink" x="0px" y="0px"
	 viewBox="0 0 119.1 95" style="enable-background:new 0 0 119.1 95;" xml:space="preserve">
<style type="text/css">
	.st0{fill:#0160FD;}
</style>
<g>
	<path class="st0" d="M72.1,92.4c-16.3,0-29.6-20.2-29.6-45s13.3-45,29.6-45s29.6,20.2,29.6,45S88.4,92.4,72.1,92.4z M72.1,6.7
		c-14,0-25.4,18.3-25.4,40.8s11.4,40.8,25.4,40.8s25.4-18.3,25.4-40.8S86.1,6.7,72.1,6.7z"/>
	<path class="st0" d="M72.1,92.4H47.4c-16.3,0-29.6-20.2-29.6-45s13.3-45,29.6-45h24.7c1.2,0,2.1,0.9,2.1,2.1s-0.9,2.1-2.1,2.1H47.4
		c-14,0-25.4,18.3-25.4,40.8s11.4,40.8,25.4,40.8h24.7c1.2,0,2.1,0.9,2.1,2.1S73.2,92.4,72.1,92.4z"/>
	<path class="st0" d="M58.3,92.4c-16.3,0-29.6-20.2-29.6-45s13.3-45,29.6-45c1.2,0,2.1,0.9,2.1,2.1s-0.9,2.1-2.1,2.1
		c-14,0-25.4,18.3-25.4,40.8s11.4,40.8,25.4,40.8c1.2,0,2.1,0.9,2.1,2.1S59.5,92.4,58.3,92.4z"/>
	<g>
		<path class="st0" d="M92.3,49.5c-1.2,0-2.1-0.9-2.1-2.1c0-16.2-8.1-29.4-18.1-29.4c-1.2,0-2.1-0.9-2.1-2.1s0.9-2.1,2.1-2.1
			c12.3,0,22.3,15.1,22.3,33.6C94.4,48.6,93.5,49.5,92.3,49.5z"/>
	</g>
	<path class="st0" d="M72.1,55.7c-3.4,0-6.1-3.7-6.1-8.3s2.7-8.3,6.1-8.3c3.4,0,6.1,3.7,6.1,8.3S75.5,55.7,72.1,55.7z M72.1,43.3
		c-0.7,0-1.9,1.6-1.9,4.1s1.2,4.1,1.9,4.1S74,50,74,47.4S72.8,43.3,72.1,43.3z"/>
	<path class="st0" d="M72.1,70.2c-8.6,0-15.4-10-15.4-22.8c0-12.8,6.8-22.8,15.4-22.8s15.4,10,15.4,22.8
		C87.5,60.2,80.7,70.2,72.1,70.2z M72.1,28.8c-6.1,0-11.2,8.5-11.2,18.6C60.9,57.5,66,66,72.1,66c6.1,0,11.2-8.5,11.2-18.6
		C83.3,37.3,78.2,28.8,72.1,28.8z"/>
	<g>
		<g>
			<path class="st0" d="M59.7,43.2c-1.2,0-2.1-0.9-2.1-2.1s0.9-2.1,2.1-2.1c5.5,0,8.5-3.8,9.7-12.2c0.2-1.1,1.2-1.9,2.4-1.8
				c1.1,0.2,2,1.2,1.8,2.4C72.1,37.9,67.5,43.2,59.7,43.2z"/>
			<path class="st0" d="M63.9,65.5c-0.2,0-0.3,0-0.5-0.1c-1.1-0.3-1.8-1.4-1.6-2.5c2-9.1-0.1-12.1-3.3-16.7
				c-0.4-0.5-0.8-1.1-1.1-1.6c-0.7-1-0.4-2.3,0.6-2.9c1-0.7,2.3-0.4,2.9,0.6c0.4,0.5,0.7,1.1,1.1,1.6c3.4,4.9,6.4,9.1,4,20
				C65.8,64.8,64.9,65.5,63.9,65.5z"/>
			<path class="st0" d="M65.7,67.3c-0.4,0-0.7-0.1-1.1-0.3c-1-0.6-1.3-1.8-0.8-2.8c0.1-0.2,2.7-4.5,8.1-4.5c1.2,0,2.1,0.9,2.1,2.1
				s-0.9,2.1-2.1,2.1c-2.9,0-4.4,2.4-4.4,2.5C67.2,66.9,66.5,67.3,65.7,67.3z"/>
		</g>
		<g>
			<path class="st0" d="M84.5,43.2c-7.8,0-12.4-5.3-13.8-15.8c-0.2-1.1,0.6-2.2,1.8-2.4c1.1-0.2,2.2,0.6,2.4,1.8
				c1.1,8.4,4.1,12.2,9.7,12.2c1.2,0,2.1,0.9,2.1,2.1S85.6,43.2,84.5,43.2z"/>
			<path class="st0" d="M80.2,65.5c-1,0-1.8-0.7-2-1.6c-2.4-10.9,0.5-15.1,4-20c0.4-0.5,0.7-1,1.1-1.6c0.7-1,2-1.2,2.9-0.6
				c1,0.7,1.2,2,0.6,2.9c-0.4,0.6-0.8,1.1-1.1,1.6c-3.2,4.6-5.3,7.6-3.3,16.7c0.3,1.1-0.5,2.3-1.6,2.5
				C80.5,65.5,80.4,65.5,80.2,65.5z"/>
			<path class="st0" d="M78.4,67.3c-0.7,0-1.4-0.4-1.8-1c-0.1-0.1-1.5-2.5-4.4-2.5c-1.2,0-2.1-0.9-2.1-2.1s0.9-2.1,2.1-2.1
				c5.4,0,8,4.4,8.1,4.5c0.6,1,0.2,2.3-0.8,2.9C79.1,67.2,78.8,67.3,78.4,67.3z"/>
		</g>
	</g>
	<g>
		<path class="st0" d="M36.9,13.6h-3.8c-1.2,0-2.1-0.9-2.1-2.1s0.9-2.1,2.1-2.1h3.8c1.2,0,2.1,0.9,2.1,2.1S38.1,13.6,36.9,13.6z"/>
		<path class="st0" d="M27.5,29.9h-3.8c-1.2,0-2.1-0.9-2.1-2.1s0.9-2.1,2.1-2.1h3.8c1.2,0,2.1,0.9,2.1,2.1S28.6,29.9,27.5,29.9z"/>
		<path class="st0" d="M24.5,46.3h-3.8c-1.2,0-2.1-0.9-2.1-2.1s0.9-2.1,2.1-2.1h3.8c1.2,0,2.1,0.9,2.1,2.1S25.7,46.3,24.5,46.3z"/>
		<path class="st0" d="M25.6,62.6h-3.8c-1.2,0-2.1-0.9-2.1-2.1s0.9-2.1,2.1-2.1h3.8c1.2,0,2.1,0.9,2.1,2.1S26.8,62.6,25.6,62.6z"/>
		<path class="st0" d="M31.9,78.9h-3.8C27,78.9,26,78,26,76.8s0.9-2.1,2.1-2.1h3.8c1.2,0,2.1,0.9,2.1,2.1S33.1,78.9,31.9,78.9z"/>
	</g>
	<g>
		<path class="st0" d="M50.1,21.8h-3.8c-1.2,0-2.1-0.9-2.1-2.1s0.9-2.1,2.1-2.1h3.8c1.2,0,2.1,0.9,2.1,2.1S51.2,21.8,50.1,21.8z"/>
		<path class="st0" d="M44.3,38.1h-3.8c-1.2,0-2.1-0.9-2.1-2.1s0.9-2.1,2.1-2.1h3.8c1.2,0,2.1,0.9,2.1,2.1S45.5,38.1,44.3,38.1z"/>
		<path class="st0" d="M43.6,54.4h-3.8c-1.2,0-2.1-0.9-2.1-2.1s0.9-2.1,2.1-2.1h3.8c1.2,0,2.1,0.9,2.1,2.1S44.7,54.4,43.6,54.4z"/>
		<path class="st0" d="M47,70.7h-3.8c-1.2,0-2.1-0.9-2.1-2.1s0.9-2.1,2.1-2.1H47c1.2,0,2.1,0.9,2.1,2.1S48.2,70.7,47,70.7z"/>
		<path class="st0" d="M57.6,87.1h-3.8c-1.2,0-2.1-0.9-2.1-2.1s0.9-2.1,2.1-2.1h3.8c1.2,0,2.1,0.9,2.1,2.1S58.8,87.1,57.6,87.1z"/>
	</g>
</g>
</svg>
