<?xml version="1.0" encoding="utf-8"?>
<!-- Generator: Adobe Illustrator 27.0.0, SVG Export Plug-In . SVG Version: 6.00 Build 0)  -->
<svg version="1.1" id="Layer_1" xmlns="http://www.w3.org/2000/svg" xmlns:xlink="http://www.w3.org/1999/xlink" x="0px" y="0px"
	 viewBox="0 0 119.1 95" style="enable-background:new 0 0 119.1 95;" xml:space="preserve">
<style type="text/css">
	.st0{fill:#0160FD;}
</style>
<g>
	<g>
		<g>
			<path class="st0" d="M79.4,80.9H32.2c-12.4,0-22.4-10.1-22.4-22.4V31.6c0-12.4,10.1-22.4,22.4-22.4H59
				c12.4,0,22.4,10.1,22.4,22.4v47.2C81.5,79.9,80.5,80.9,79.4,80.9z M32.2,13.3c-10.1,0-18.2,8.2-18.2,18.2v26.9
				c0,10.1,8.2,18.2,18.2,18.2h45.1V31.6c0-10.1-8.2-18.2-18.2-18.2H32.2z"/>
		</g>
		<path class="st0" d="M45.6,67.1c-12.2,0-22-9.9-22-22c0-12.2,9.9-22,22-22c12.2,0,22,9.9,22,22C67.6,57.2,57.7,67.1,45.6,67.1z
			 M45.6,27.2c-9.8,0-17.8,8-17.8,17.8c0,9.8,8,17.8,17.8,17.8c9.8,0,17.8-8,17.8-17.8C63.4,35.2,55.4,27.2,45.6,27.2z"/>
	</g>
	<path class="st0" d="M107.6,80.9H79.4c-1.2,0-2.1-0.9-2.1-2.1s0.9-2.1,2.1-2.1h26.2v-12H79.4c-1.2,0-2.1-0.9-2.1-2.1
		s0.9-2.1,2.1-2.1h28.3c1.2,0,2.1,0.9,2.1,2.1v16.2C109.7,79.9,108.8,80.9,107.6,80.9z"/>
	<path class="st0" d="M88.8,80.9c-1.2,0-2.1-0.9-2.1-2.1v-7.3c0-1.2,0.9-2.1,2.1-2.1s2.1,0.9,2.1,2.1v7.3
		C90.9,79.9,89.9,80.9,88.8,80.9z"/>
	<path class="st0" d="M98.2,80.9c-1.2,0-2.1-0.9-2.1-2.1v-7.3c0-1.2,0.9-2.1,2.1-2.1s2.1,0.9,2.1,2.1v7.3
		C100.3,79.9,99.4,80.9,98.2,80.9z"/>
	<path class="st0" d="M107.6,85.7c-1.2,0-2.1-0.9-2.1-2.1V71.5c0-1.2,0.9-2.1,2.1-2.1s2.1,0.9,2.1,2.1v12.2
		C109.7,84.8,108.8,85.7,107.6,85.7z"/>
</g>
</svg>
