<?xml version="1.0" encoding="utf-8"?>
<!-- Generator: Adobe Illustrator 27.0.0, SVG Export Plug-In . SVG Version: 6.00 Build 0)  -->
<svg version="1.1" id="Layer_1" xmlns="http://www.w3.org/2000/svg" xmlns:xlink="http://www.w3.org/1999/xlink" x="0px" y="0px"
	 viewBox="0 0 119.1 95" style="enable-background:new 0 0 119.1 95;" xml:space="preserve">
<style type="text/css">
	.st0{fill:#0160FD;}
</style>
<g>
	<g>
		<g>
			<g>
				<path class="st0" d="M36.1,55.5c-1.2,0-2.1-0.9-2.1-2.1V49c0-3,2.4-5.5,5.5-5.5c1.2,0,2.1,0.9,2.1,2.1s-0.9,2.1-2.1,2.1
					c-0.7,0-1.3,0.6-1.3,1.3v4.4C38.2,54.5,37.3,55.5,36.1,55.5z"/>
				<path class="st0" d="M39.5,47.8c-3,0-5.5-2.4-5.5-5.5v-5.2c0-3.5,1.3-6.5,13.2-18.4c0.8-0.8,2.1-0.8,3,0c0.8,0.8,0.8,2.1,0,3
					c-12,12-12,13.9-12,15.5v5.2c0,0.7,0.6,1.3,1.3,1.3c1.2,0,2.1,0.9,2.1,2.1S40.7,47.8,39.5,47.8z"/>
			</g>
			<g>
				<path class="st0" d="M71.2,58.8c-1.2,0-2.1-0.9-2.1-2.1s0.9-2.1,2.1-2.1c0.7,0,1.3-0.6,1.3-1.3V49c0-0.7-0.6-1.3-1.3-1.3
					c-1.2,0-2.1-0.9-2.1-2.1s0.9-2.1,2.1-2.1c3,0,5.5,2.4,5.5,5.5v4.4C76.6,56.4,74.2,58.8,71.2,58.8z"/>
				<path class="st0" d="M71.2,47.8c-1.2,0-2.1-0.9-2.1-2.1s0.9-2.1,2.1-2.1c0.7,0,1.3-0.6,1.3-1.3v-5.2c0-1.6,0-3.5-12-15.5
					c-0.8-0.8-0.8-2.1,0-3c0.8-0.8,2.1-0.8,3,0c11.9,11.9,13.2,14.9,13.2,18.4v5.2C76.6,45.3,74.2,47.8,71.2,47.8z"/>
			</g>
		</g>
		<path class="st0" d="M59.3,21.7h-7.9c-5,0-9-4-9-9s4-9,9-9h7.9c5,0,9,4,9,9S64.3,21.7,59.3,21.7z M51.4,7.9
			c-2.6,0-4.8,2.1-4.8,4.8s2.2,4.8,4.8,4.8h7.9c2.6,0,4.8-2.2,4.8-4.8S62,7.9,59.3,7.9H51.4z"/>
	</g>
	<path class="st0" d="M21.5,91.1C10.7,91.1,2,82.9,2,72.9c0-5,2.1-9.6,5.9-13.1c0,0,0.1-0.1,0.1-0.1c0,0,0.1-0.1,0.1-0.1l3.2-2.3
		c0,0,0.1-0.1,0.2-0.1c0.5-1.1,1.5-2.5,3.9-3.5c1.7-0.7,3.8-1,6.1-1c0.5,0,1.1,0,1.6,0.1c0,0,0.1,0,0.1,0c0,0,0,0,0.1,0l0.6,0.1
		c0-0.6,0.3-1.2,0.8-1.5c0.7-0.5,1.5-0.8,2.3-0.8c1.5,0,2.9,0.9,3.4,2.3c2.8-0.3,5.9,0.1,8,0.9c2.4,0.9,3.4,2.3,3.9,3.5
		c3.7,2.1,6.6,5.2,8.1,8.9l29.5-11.2c2.7-1,5.6-0.8,8.1,0.6c1.4,0.8,2.6,1.9,3.5,3.3l10.5-6c0.1-0.1,0.3-0.1,0.4-0.2
		c0.2-0.1,0.3-0.1,0.5-0.1c0.7-0.1,1.3,0,2,0.1c1.3,0.4,2.5,1.3,3.2,2.5l1.2,2.1c0.3,0.5,0.5,1,0.6,1.6c0.2,0.9,0.1,1.8-0.2,2.7
		l1.2-0.2c0.3-0.1,0.6-0.1,0.9-0.1c2.5,0,4.6,1.8,5.1,4.2l0.4,2.3c0.3,1.5-0.1,3.1-1.1,4.3c-0.8,0.9-1.9,1.5-3.1,1.8l-1.1,0.2
		c0.6,0.7,1,1.5,1.2,2.4c0.1,0.6,0.1,1.1,0,1.7l-0.3,2.3c-0.2,1.2-0.8,2.3-1.6,3.1c-1.2,1.1-2.8,1.6-4.4,1.3l-10.5-1.9
		c-0.2,1.7-1,3.4-2.1,4.8c-1.8,2.2-4.5,3.4-7.3,3.4l-50.8,0c0,0,0,0,0,0c-1.1,0-2.1-0.2-3.1-0.7l-2.1,0.4c-1,0.2-2,0.3-2.9,0.3
		L21.5,91.1z M10.7,63c-2.9,2.7-4.5,6.2-4.5,9.9c0,7.8,6.9,14.1,15.3,14.1l6.2,0c0.5,0,0.9,0,1.4-0.1c-0.6-1.3-1.1-2.8-1.2-3.5
		L27.9,83c-0.8-4.5,1.7-9,6-10.7l12.6-4.8c-1.2-2.8-3.4-5.1-6.2-6.7c-0.5,0.2-1.1,0.3-1.7,0.5c1,1.3,1.3,1.9,1.3,2.6
		c0.1,1.3-0.3,2.6-1.2,3.6c-0.7,0.8-2.1,1.8-4.5,1.8c-2.1,0-4.7-0.8-7.1-2.1c-0.1-0.1-0.2-0.1-0.3-0.2c-0.1,0.1-0.2,0.1-0.3,0.2
		c-2.4,1.3-5,2.1-7.1,2.1c-2.4,0-3.8-1-4.5-1.8c-0.9-1-1.3-2.2-1.2-3.6c0.1-0.8,0.5-1.4,1.3-2.4c-0.6-0.2-1.3-0.5-1.8-0.7L10.7,63z
		 M50.2,70.6l-14.8,5.6c-2.4,0.9-3.8,3.4-3.4,6l0.1,0.3c0.1,0.4,0.4,1.4,0.9,2.6c0.5,1.1,1.6,1.8,2.9,1.8c0,0,0,0,0,0l50.8,0
		c1.6,0,3.1-0.7,4.1-1.9c1-1.2,1.4-2.7,1.2-4.2l-3.4-18.3c0-0.1,0-0.1-0.1-0.2c-0.4-1.4-1.3-2.5-2.5-3.2c-1.4-0.8-3.1-0.9-4.5-0.3
		L50.2,70.6z M95.8,78.6l11.6,2.1c0.3,0.1,0.6,0,0.9-0.3c0.2-0.1,0.3-0.4,0.3-0.6l0.3-2.3c0-0.1,0-0.2,0-0.3
		c-0.1-0.4-0.4-0.7-0.7-0.8l-4.6-1.1c-1-0.2-1.7-1.1-1.6-2.1c0-1,0.7-1.8,1.7-2l8.5-1.6c0.3,0,0.5-0.2,0.6-0.3
		c0.2-0.2,0.3-0.5,0.2-0.8l-0.4-2.3c-0.1-0.5-0.6-0.9-1.2-0.8l-8.6,1.6c-1,0.2-2-0.4-2.3-1.3c-0.4-0.9,0-2,0.8-2.5l3.9-2.6
		c0.3-0.2,0.5-0.6,0.4-1c0-0.1-0.1-0.2-0.1-0.3l-1.2-2.1c-0.1-0.2-0.4-0.4-0.6-0.5c0,0-0.1,0-0.1,0l-10.8,6.1L95.8,78.6z M26.9,62.5
		c0.4,0,0.8,0.1,1.2,0.4c0.4,0.3,0.8,0.5,1.2,0.7c1.7,1,3.7,1.6,5,1.6c0.5,0,1.1-0.1,1.3-0.4c0-0.1,0.1-0.1,0.1-0.2
		c-0.3-0.5-1.1-1.5-1.4-1.9c-0.6-0.7-0.8-1.1-1-1.3c-0.3-0.5-0.4-1.2-0.2-1.8s0.7-1.1,1.3-1.3c0.3-0.1,1.3-0.4,2.3-0.7
		c-2-0.7-5.3-0.9-7.7-0.3c-0.6,0.2-1.3,0-1.8-0.4c0,0,0,0,0,0c-0.4,0.4-1,0.5-1.6,0.5l-2.9-0.4c-2-0.2-4.3,0.1-5.7,0.7
		c-0.1,0-0.1,0-0.2,0.1c1.2,0.4,2.4,0.9,2.8,1c0.6,0.2,1.1,0.7,1.3,1.3c0.2,0.6,0.2,1.2-0.2,1.8c-0.2,0.4-0.6,0.8-1.3,1.6
		c-0.3,0.4-0.9,0.9-1.2,1.3c0,0,0,0.1,0.1,0.1c0.3,0.3,0.9,0.4,1.3,0.4c1.4,0,3.3-0.6,5-1.6c0.4-0.2,0.8-0.5,1.2-0.7
		C26.1,62.6,26.5,62.5,26.9,62.5z M17.9,65L17.9,65L17.9,65z"/>
	<path class="st0" d="M78.3,90.8c-1,0-1.9-0.7-2.1-1.7c0,0-0.7-3.7-1.5-7.4c-0.4-1.8-0.7-3.7-1-5.1c-0.6-2.9-0.8-4,0.9-4.7
		c1.1-0.4,2.3,0.1,2.7,1.2c0.1,0.2,0.1,0.4,0.1,0.6c0.2,1.1,1.8,9.4,2.8,14.5c0.2,1.1-0.5,2.2-1.6,2.5
		C78.6,90.8,78.5,90.8,78.3,90.8z"/>
	<path class="st0" d="M63.4,83.8c-1,0-1.9-0.7-2.1-1.7c0,0-0.5-2.6-1-5.3c-0.3-1.3-0.5-2.6-0.7-3.6c-0.4-2-0.6-3.4,1-4
		c1.1-0.4,2.3,0.1,2.7,1.2c0.1,0.2,0.1,0.4,0.1,0.6c0.1,0.9,1.3,6.7,2,10.3c0.2,1.1-0.5,2.2-1.7,2.5C63.6,83.8,63.5,83.8,63.4,83.8z
		"/>
</g>
</svg>
