<?xml version="1.0" encoding="utf-8"?>
<!-- Generator: Adobe Illustrator 27.0.0, SVG Export Plug-In . SVG Version: 6.00 Build 0)  -->
<svg version="1.1" id="Layer_1" xmlns="http://www.w3.org/2000/svg" xmlns:xlink="http://www.w3.org/1999/xlink" x="0px" y="0px"
	 viewBox="0 0 119.1 95" style="enable-background:new 0 0 119.1 95;" xml:space="preserve">
<style type="text/css">
	.st0{fill:#0160FD;}
</style>
<g>
	<path class="st0" d="M98.6,61.4H78.7c-4.1,0-7.5-3.4-7.5-7.5V15.5c0-4.1,3.4-7.5,7.5-7.5h19.9c4.1,0,7.5,3.4,7.5,7.5v38.4
		C106.1,58,102.7,61.4,98.6,61.4z M78.7,12.2c-1.8,0-3.3,1.5-3.3,3.3v38.4c0,1.8,1.5,3.3,3.3,3.3h19.9c1.8,0,3.3-1.5,3.3-3.3V15.5
		c0-1.8-1.5-3.3-3.3-3.3H78.7z"/>
	<path class="st0" d="M104,46.8H73.3c-1.2,0-2.1-0.9-2.1-2.1s0.9-2.1,2.1-2.1H104c1.2,0,2.1,0.9,2.1,2.1S105.1,46.8,104,46.8z"/>
	<path class="st0" d="M91.7,54h-6.2c-1.2,0-2.1-0.9-2.1-2.1s0.9-2.1,2.1-2.1h6.2c1.2,0,2.1,0.9,2.1,2.1S92.9,54,91.7,54z"/>
	<path class="st0" d="M58.7,79.7h-6.2c-1.2,0-2.1-0.9-2.1-2.1s0.9-2.1,2.1-2.1h6.2c1.2,0,2.1,0.9,2.1,2.1S59.9,79.7,58.7,79.7z"/>
	<path class="st0" d="M88.7,72.6H21.5c-1.2,0-2.1-0.9-2.1-2.1V28.3c0-4,3.2-7.2,7.2-7.2h46.8c1.2,0,2.1,0.9,2.1,2.1
		s-0.9,2.1-2.1,2.1H26.6c-1.7,0-3,1.3-3,3v40.1h63v-8.8c0-1.2,0.9-2.1,2.1-2.1s2.1,0.9,2.1,2.1v10.9C90.8,71.6,89.9,72.6,88.7,72.6z
		"/>
	<path class="st0" d="M90.6,86.8H19.6c-3.4,0-6.2-2.8-6.2-6.2V70.5c0-1.2,0.9-2.1,2.1-2.1h79.3c1.2,0,2.1,0.9,2.1,2.1v10.2
		C96.8,84.1,94.1,86.8,90.6,86.8z M17.6,72.6v8.1c0,1.1,0.9,2,2,2h71.1c1.1,0,2-0.9,2-2v-8.1H17.6z"/>
</g>
</svg>
