<?xml version="1.0" encoding="utf-8"?>
<!-- Generator: Adobe Illustrator 27.0.0, SVG Export Plug-In . SVG Version: 6.00 Build 0)  -->
<svg version="1.1" id="Layer_1" xmlns="http://www.w3.org/2000/svg" xmlns:xlink="http://www.w3.org/1999/xlink" x="0px" y="0px"
	 viewBox="0 0 204.1 116.2" style="enable-background:new 0 0 204.1 116.2;" xml:space="preserve">
<style type="text/css">
	.st0{fill:#FFFFFF;}
</style>
<g>
	<path class="st0" d="M72.2,44.1H82v3.2h-4.7v22.6h-5.2V44.1z M87.9,60.2l0.9-12.9H89l0.9,12.9H87.9z M82.2,69.9h5l0.5-6.8h2.4
		l0.5,6.8h5l-2.7-25.8h-8.1L82.2,69.9z M103,60.9v4.9c0,0.7,0.5,0.8,0.8,0.8c0.5,0,0.8-0.4,0.8-0.8v-6c0-0.8-0.1-1.7-2.1-1.7h-2.1
		v-2.8h2.2c1.5,0,2-0.3,2-1.9v-5.1c0-0.4-0.3-0.8-0.8-0.8c-0.3,0-0.8,0.2-0.8,0.8v4.2h-5.2v-3.7c0-1.8,0.2-4.6,3.8-4.6h4.3
		c3.6,0,3.8,2.8,3.8,4.6v4.1c0,2.8-2,3.6-3.5,3.5v0.3c3.5-0.1,3.5,2.6,3.5,3.5v5.2c0,1.8-0.2,4.6-3.8,4.6h-4.3
		c-3.6,0-3.8-2.8-3.8-4.6v-4.4L103,60.9z M113.2,44.1h11.9v25.8h-5.2V47.4h-1.6v22.6h-5.2V44.1z M133.6,58.3v-11h0.7
		c0.5,0,1,0.5,1,1.3V57c0,0.8-0.4,1.3-1,1.3L133.6,58.3z M128.5,69.9h5.2v-8.8h3c3.6,0,3.8-2.8,3.8-4.6v-7.8c0-1.8-0.2-4.6-3.8-4.6
		h-8.1V69.9z M150.6,65.8c0,0.4-0.3,0.8-0.8,0.8c-0.3,0-0.8-0.2-0.8-0.8V48.2c0-0.7,0.5-0.8,0.8-0.8c0.5,0,0.8,0.4,0.8,0.8V65.8z
		 M143.8,65.3c0,1.8,0.2,4.6,3.8,4.6h4.3c3.6,0,3.8-2.8,3.8-4.6V48.8c0-1.8-0.2-4.6-3.8-4.6h-4.3c-3.6,0-3.8,2.8-3.8,4.6V65.3z
		 M172.5,44.1h6.7v25.8h-5.2V53.8h-0.2l-2.7,16.2h-4.1l-2.6-16.2h-0.2v16.2h-5.2V44.1h6.7l3.4,18.1L172.5,44.1z M65.5,34.6
		C64,27.7,60,22.1,59.5,21.2c-0.9,1.3-4,6.3-5.6,11.7c-1.8,6.1-2,11.6-1.4,16.9c0.6,5.4,2.9,10.9,2.9,10.9c1.2,2.9,3,6,4.2,7.5
		c1.7-2.2,5.7-8.9,6.9-17.6C67.1,45.8,67.1,41.6,65.5,34.6L65.5,34.6z M59.5,66.5c-0.8-1.5-2-4.2-2.1-8.5c0-4.1,1.6-7.7,2.1-8.4
		c0.4,0.7,1.9,3.8,2,8.1C61.6,61.8,60.3,65.1,59.5,66.5L59.5,66.5z M65.1,46.4c-0.1,2.6-0.4,5.4-0.8,7.1c0.1-2.9-0.2-6.9-0.9-10.1
		c-0.7-3.1-2.5-8.4-4-10.9c-1.4,2.3-3.1,6.9-4,10.8c-0.9,3.9-0.9,8.7-0.9,10.2c-0.2-1.2-0.8-5.5-0.7-9.9c0.1-3.6,1-7.3,1.4-9
		c1.7-5.6,3.7-9.3,4.1-9.8c0.4,0.6,2.9,5,4.2,9.7C64.9,39.3,65.1,43.7,65.1,46.4"/>
	<path class="st0" d="M62.1,69.9h-12v8c0,0,0,0,0,0c2.8-2.8,7.4-2.8,10.2,0c2.8,2.8,2.8,7.4,0,10.2c0,0,0,0,0,0c0,0,0,0,0,0
		c-2.8,2.8-6.5,4.2-10.2,4.2c-3.7,0-7.4-1.4-10.2-4.2c-5-5-5.6-12.7-1.8-18.3c0.5-0.8,1.1-1.5,1.8-2.2c2.8-2.8,6.5-4.2,10.2-4.2
		V44.1c-14.2,0-25.7,11.5-25.7,25.7s11.5,25.7,25.7,25.7c7.4,0,14.1-3.1,18.8-8.2V69.9H62.1z M179.2,77.4h-107v18.2h107V77.4z
		 M170,90.1h1.4v-2.7H170V90.1z M170,85.3h2.1l1.4,0.7l0.3,0.7l0.3,1.4v0.7c0,4.9-3.2,3.1-6.5,3.4V80.9h2.4L170,85.3z M152.1,80.9
		v2.1h-1.7v9.3h-2.7v-9.3H146v-2.1H152.1z M127.1,89.1h0.3l0.7-0.3V84h-1V89.1z M124.3,84h-1v4.8l0.7,0.3h0.3V84z M127.1,80.9v1h1.7
		l1,0.7l0.7,0.7l0.3,1.4v3.8l-0.3,1.4l-0.7,0.7l-1,0.7h-1.7v1h-2.8v-1h-1.7l-1-0.7l-0.7-0.7l-0.3-1.4v-3.8l0.3-1.4l0.7-0.7l1-0.7
		h1.7v-1H127.1z M104.8,80.9v2.1h-2.1v2.4h2.1v2.1h-2.1v2.7h2.4v2.1H100V80.9H104.8z M80.1,85.3h1.4v-4.5h2.4v11.3h-2.4v-4.8h-1.4
		v4.8h-2.7V80.9h2.7L80.1,85.3z"/>
</g>
</svg>
