<?xml version="1.0" encoding="utf-8"?>
<!-- Generator: Adobe Illustrator 27.0.0, SVG Export Plug-In . SVG Version: 6.00 Build 0)  -->
<svg version="1.1" id="Layer_1" xmlns="http://www.w3.org/2000/svg" xmlns:xlink="http://www.w3.org/1999/xlink" x="0px" y="0px"
	 viewBox="0 0 204.1 116.2" style="enable-background:new 0 0 204.1 116.2;" xml:space="preserve">
<style type="text/css">
	.st0{fill:#FFFFFF;}
</style>
<g>
	<path class="st0" d="M61.2,113.5v-17h8c3.7,0,5.7,2.5,5.7,5.5c0,3-2,5.5-5.7,5.5h-4.3v6.1H61.2z M71.2,102c0-1.4-1.1-2.3-2.5-2.3
		h-3.9v4.6h3.9C70.1,104.3,71.2,103.4,71.2,102"/>
	<path class="st0" d="M76.3,107.3c0-3.5,2.5-6.5,6.5-6.5c4.1,0,6.5,3,6.5,6.5c0,3.5-2.5,6.5-6.5,6.5
		C78.7,113.8,76.3,110.9,76.3,107.3 M85.9,107.3c0-1.9-1.1-3.6-3.2-3.6c-2,0-3.1,1.7-3.1,3.6c0,1.9,1.1,3.6,3.1,3.6
		C84.8,110.9,85.9,109.3,85.9,107.3"/>
	<path class="st0" d="M91.4,107.3c0-3.8,2.7-6.5,6.5-6.5c2.5,0,4.1,1.1,4.9,2.2l-2.1,2c-0.6-0.9-1.5-1.3-2.6-1.3
		c-2,0-3.3,1.4-3.3,3.6c0,2.1,1.4,3.6,3.3,3.6c1.1,0,2-0.5,2.6-1.3l2.1,2c-0.8,1.1-2.3,2.2-4.9,2.2
		C94.2,113.8,91.4,111.2,91.4,107.3"/>
	<polygon class="st0" points="108.3,113.5 108.3,104 104.8,104 104.8,101.2 115,101.2 115,104 111.5,104 111.5,113.5 	"/>
	<path class="st0" d="M116.2,107.3c0-3.6,2.6-6.5,6.4-6.5c3.7,0,6.2,2.8,6.2,6.8v0.7h-9.2c0.2,1.6,1.5,2.9,3.5,2.9
		c1,0,2.5-0.5,3.3-1.2l1.4,2.1c-1.2,1.1-3.2,1.7-5.1,1.7C119.1,113.8,116.2,111.3,116.2,107.3 M122.6,103.5c-2,0-2.9,1.5-3,2.7h6.1
		C125.6,105,124.8,103.5,122.6,103.5"/>
	<polygon class="st0" points="138.8,113.5 136,109.4 133.1,113.5 129.5,113.5 133.9,107.2 129.8,101.2 133.4,101.2 136,105 
		138.5,101.2 142.1,101.2 138,107.2 142.4,113.5 	"/>
	<polygon class="st0" points="131.5,40.8 131.5,13.5 104.4,13.5 115,3 142.1,3 142.1,16.3 142.1,30.2 	"/>
	<polygon class="st0" points="142.1,83.9 115,83.9 104.4,73.3 131.5,73.3 131.5,46.1 142.1,56.8 	"/>
	<polygon class="st0" points="61.2,30.2 61.2,16.3 61.2,3 88.4,3 99,13.5 71.9,13.5 71.9,40.8 	"/>
	<polygon class="st0" points="61.2,56.7 71.9,46.1 71.9,73.3 99,73.3 88.4,83.9 61.2,83.9 	"/>
</g>
</svg>
