<?xml version="1.0" encoding="utf-8"?>
<!-- Generator: Adobe Illustrator 27.0.0, SVG Export Plug-In . SVG Version: 6.00 Build 0)  -->
<svg version="1.1" id="Layer_1" xmlns="http://www.w3.org/2000/svg" xmlns:xlink="http://www.w3.org/1999/xlink" x="0px" y="0px"
	 viewBox="0 0 204.1 116.2" style="enable-background:new 0 0 204.1 116.2;" xml:space="preserve">
<style type="text/css">
	.st0{fill-rule:evenodd;clip-rule:evenodd;fill:#FFFFFF;}
</style>
<path class="st0" d="M105.2,13.7c2.2,0.2,4.4,0.5,6.6,1l-22.8,58c13.2,6.3,34.1,4.7,55.7-1.6c-0.4,1.2-0.8,2.4-1.2,3.6
	c-23.4,7.3-45.4,10.7-62.6,0.6L105.2,13.7L105.2,13.7z M123.2,19l-21.4,51.7c8,5.3,33.2,0.9,43.9-3.3c0.2-1.1,0.4-2.2,0.6-3.4
	c-13.6,4.6-25.9,6.1-36.6,4l19.5-45.2C127.2,21.5,125.3,20.2,123.2,19L123.2,19z M138.3,32.5l-13.5,31.9c7.7,0.7,14.9-0.1,21.7-2.7
	c0.1-1.1,0.1-2.2,0.1-3.3C146.5,48.7,143.5,39.8,138.3,32.5L138.3,32.5z M141.6,78.9c-29.9,10.2-55.3,8.9-72.7-2.2l22.2-61.7
	c-19.5,4.8-34,22.4-34,43.4c0,24.7,20,44.7,44.7,44.7C119.1,103.1,134.1,93.3,141.6,78.9z"/>
</svg>
