<?xml version="1.0" encoding="utf-8"?>
<!-- Generator: Adobe Illustrator 27.0.0, SVG Export Plug-In . SVG Version: 6.00 Build 0)  -->
<svg version="1.1" id="Layer_1" xmlns="http://www.w3.org/2000/svg" xmlns:xlink="http://www.w3.org/1999/xlink" x="0px" y="0px"
	 viewBox="0 0 204.1 116.2" style="enable-background:new 0 0 204.1 116.2;" xml:space="preserve">
<style type="text/css">
	.st0{fill-rule:evenodd;clip-rule:evenodd;fill:#FFFFFF;}
</style>
<g>
	<polygon class="st0" points="178.1,75.5 178.1,77.6 183.4,77.6 186.8,85.3 189.3,85.3 179.4,62.4 178.1,62.4 178.2,65 182.6,75.5 
		178.1,75.5 	"/>
	<polygon class="st0" points="178.1,65.1 178.1,62.4 176.9,62.4 167,85.3 169.4,85.3 172.8,77.6 178.1,77.6 178.1,75.5 173.7,75.5 
		178.2,65 178.1,65.1 	"/>
	<path class="st0" d="M137.1,83.3v2c6.6-0.4,7.3-4.7,7.3-6.5c0-2.3-1.1-5-4-5.8c1.2-0.7,2.8-2.1,2.8-4.5c0-4.6-3.4-5.7-6.1-6v2.2
		c1.7,0.2,3.7,1,3.7,3.8c0,2.6-1.9,3.4-3.7,3.7v2.2c2.3,0.1,5,1,5,4.5C142.1,82.3,139.3,83.1,137.1,83.3L137.1,83.3z"/>
	<polygon class="st0" points="146.8,62.4 146.8,85.3 149.2,85.3 162.9,65.7 162.9,85.3 165.2,85.3 165.2,62.4 162.8,62.4 
		149.1,82.1 149.1,62.4 146.8,62.4 	"/>
	<path class="st0" d="M137.1,64.6v-2.2c-0.6,0-1.2-0.1-1.6-0.1h-5.7v22.9h6.2c0.3,0,0.7,0,1,0v-2c-0.3,0-0.8,0-1,0h-4v-9h4
		c0.3,0,0.7,0.1,1,0.1v-2.2c-0.6,0.1-1.1,0.1-1.6,0.1h-3.4v-7.7h3.4C135.9,64.5,136.6,64.5,137.1,64.6L137.1,64.6z"/>
	<polygon class="st0" points="117,75.5 117,77.6 122.2,77.6 125.6,85.3 128.1,85.3 118.2,62.4 117,62.4 117,65.2 121.4,75.5 
		117,75.5 	"/>
	<polygon class="st0" points="117,65.2 117,62.4 115.7,62.4 106.2,84.2 106.2,85.3 108.2,85.3 111.5,77.6 117,77.6 117,75.5 
		112.5,75.5 117,65 117,65.2 	"/>
	<path class="st0" d="M106.2,71.7v4.5c0.1-0.7,0.3-1.5,0.3-2.2C106.5,73.2,106.4,72.5,106.2,71.7L106.2,71.7z"/>
	<path class="st0" d="M106.2,76.2v-4.5c-1-5.5-5.8-9.8-11.8-9.8v4.3c4.4,0.1,7.8,3.4,7.8,7.6c0,4.3-3.4,7.9-7.8,8V86
		C100.4,86,105.2,81.7,106.2,76.2L106.2,76.2z"/>
	<polygon class="st0" points="106.2,85.3 106.2,84.2 105.8,85.3 106.2,85.3 	"/>
	<polygon class="st0" points="18.5,85.3 22.8,85.3 22.8,66.5 27.1,66.5 27.1,62.4 14.3,62.4 14.3,66.5 18.5,66.5 18.5,85.3 	"/>
	<path class="st0" d="M94.5,66.2v-4.3l-0.1-0.1c-6.9,0-12.1,5.5-12.1,12.1c0,6.6,5.3,12,12.1,12c0,0,0.1,0.1,0.1,0v-4.2h-0.1
		c-4.5,0-7.8-3.6-7.8-8C86.6,69.6,89.9,66.1,94.5,66.2L94.5,66.2L94.5,66.2z"/>
	<polygon class="st0" points="28.5,85.3 40.8,85.3 40.8,81.3 32.7,81.3 32.7,75.9 40.5,75.9 40.5,71.8 32.7,71.8 32.7,66.5 
		40.8,66.5 40.8,62.4 28.5,62.4 28.5,85.3 	"/>
	<polygon class="st0" points="41.9,85.3 46.8,85.3 52.2,77.4 57.7,85.3 62.6,85.3 54.7,73.8 62.6,62.4 57.7,62.4 52.2,70.3 
		46.8,62.4 41.9,62.4 49.8,73.8 41.9,85.3 	"/>
	<polygon class="st0" points="64,85.3 68.2,85.3 68.2,75.7 76.6,75.7 76.6,85.3 81,85.3 81,62.4 76.6,62.4 76.6,71.5 68.2,71.5 
		68.2,62.4 64,62.4 64,85.3 	"/>
	<g>
		<path class="st0" d="M112.4,36.9l-13.2-6.2l-5.8,12.3C103.1,46.1,105.4,45.7,112.4,36.9z"/>
		<path class="st0" d="M109.8,47.7c3.4,3.2,5.9,4.2,8.1,5l5-10.8l-6.8-3.2C114.1,41.9,112,44.9,109.8,47.7z"/>
		<path class="st0" d="M92.8,44.3L88,54.5l23.8,11.1l5.1-11C106.9,51.9,100.4,48.9,92.8,44.3z"/>
	</g>
</g>
</svg>
